<?xml version="1.0" encoding="UTF-8" standalone="no"?>
<!DOCTYPE svg PUBLIC "-//W3C//DTD SVG 1.1//EN"
 "http://www.w3.org/Graphics/SVG/1.1/DTD/svg11.dtd">
<!-- Generated by graphviz version 2.38.0 (20140413.2041)
 -->
<!-- Title: G Pages: 1 -->
<svg width="307pt" height="366pt"
 viewBox="0.00 0.00 307.00 366.00" xmlns="http://www.w3.org/2000/svg" xmlns:xlink="http://www.w3.org/1999/xlink">
<g id="graph0" class="graph" transform="scale(1 1) rotate(0) translate(4 362)">
<title>G</title>
<polygon fill="white" stroke="none" points="-4,4 -4,-362 303,-362 303,4 -4,4"/>
<g id="clust1" class="cluster"><title>cluster_Global</title>
<path fill="none" stroke="gray" d="M20,-8C20,-8 279,-8 279,-8 285,-8 291,-14 291,-20 291,-20 291,-338 291,-338 291,-344 285,-350 279,-350 279,-350 20,-350 20,-350 14,-350 8,-344 8,-338 8,-338 8,-20 8,-20 8,-14 14,-8 20,-8"/>
<text text-anchor="middle" x="149.5" y="-337.2" font-family="Times New Roman,serif" font-size="11.00" fill="gray">Global</text>
</g>
<!-- \\DBPDO -->
<g id="node1" class="node"><title>\\DBPDO</title>
<polygon fill="none" stroke="black" points="251,-322 197,-322 197,-286 251,-286 251,-322"/>
<text text-anchor="middle" x="224" y="-301.2" font-family="Courier,monospace" font-size="11.00">DBPDO</text>
</g>
<!-- \\Departamento -->
<g id="node2" class="node"><title>\\Departamento</title>
<polygon fill="none" stroke="black" points="273,-268 175,-268 175,-232 273,-232 273,-268"/>
<text text-anchor="middle" x="224" y="-247.2" font-family="Courier,monospace" font-size="11.00">Departamento</text>
</g>
<!-- \\DepartamentoPDO -->
<g id="node3" class="node"><title>\\DepartamentoPDO</title>
<polygon fill="none" stroke="black" points="283,-214 165,-214 165,-178 283,-178 283,-214"/>
<text text-anchor="middle" x="224" y="-193.2" font-family="Courier,monospace" font-size="11.00">DepartamentoPDO</text>
</g>
<!-- \\Rest -->
<g id="node4" class="node"><title>\\Rest</title>
<polygon fill="none" stroke="black" points="251,-160 197,-160 197,-124 251,-124 251,-160"/>
<text text-anchor="middle" x="224" y="-139.2" font-family="Courier,monospace" font-size="11.00">Rest</text>
</g>
<!-- \\Usuario -->
<g id="node5" class="node"><title>\\Usuario</title>
<polygon fill="none" stroke="black" points="256,-106 192,-106 192,-70 256,-70 256,-106"/>
<text text-anchor="middle" x="224" y="-85.2" font-family="Courier,monospace" font-size="11.00">Usuario</text>
</g>
<!-- \\UsuarioPDO -->
<g id="node6" class="node"><title>\\UsuarioPDO</title>
<polygon fill="none" stroke="black" points="266,-52 182,-52 182,-16 266,-16 266,-52"/>
<text text-anchor="middle" x="224" y="-31.2" font-family="Courier,monospace" font-size="11.00">UsuarioPDO</text>
</g>
<!-- \\UsuarioDB -->
<g id="node7" class="node"><title>\\UsuarioDB</title>
<polygon fill="none" stroke="black" points="93,-52 16,-52 16,-16 93,-16 93,-52"/>
<text text-anchor="middle" x="54.5" y="-31.2" font-family="Courier,monospace" font-size="11.00">UsuarioDB</text>
</g>
<!-- \\UsuarioPDO&#45;&gt;\\UsuarioDB -->
<g id="edge1" class="edge"><title>\\UsuarioPDO&#45;&gt;\\UsuarioDB</title>
<path fill="none" stroke="black" stroke-dasharray="1,5" d="M181.595,-34C157.945,-34 128.181,-34 103.51,-34"/>
<polygon fill="none" stroke="black" points="103.281,-30.5001 93.2812,-34 103.281,-37.5001 103.281,-30.5001"/>
</g>
</g>
</svg>
